<svg id="Flat" height="512" width="512" xmlns="http://www.w3.org/2000/svg"><path d="M392 488H120a48 48 0 01-48-48V72a48 48 0 0148-48h224l96 96v320a48 48 0 01-48 48z" fill="#cfd2fc"/><path d="M72 360h368v80a48 48 0 01-48 48H120a48 48 0 01-48-48v-80z" fill="#5153ff"/><path d="M440 120h-48a48 48 0 01-48-48V24zM320 288H192a8 8 0 01-8-8V152a8 8 0 018-8h128a8 8 0 018 8v128a8 8 0 01-8 8zm-120-16h112V160H200z" fill="#8690fa"/><path d="M176 136h32v32h-32zm128 0h32v32h-32zm0 128h32v32h-32zm-128 0h32v32h-32z" fill="#5153ff"/><path d="M184 400h16a8 8 0 000-16h-16a24 24 0 000 48 8 8 0 010 16h-16a8 8 0 000 16h16a24 24 0 000-48 8 8 0 010-16zm81.94-15.761a8 8 0 00-9.7 5.821L248 423.015l-8.239-32.955a8 8 0 10-15.522 3.88l16 64a8 8 0 0015.522 0l16-64a8 8 0 00-5.821-9.701zM344 416h-16a8 8 0 000 16h7.049c-2.252 9.217-8.235 16-15.049 16-8.673 0-16-10.991-16-24s7.327-24 16-24a10.71 10.71 0 014.589 1.057 8 8 0 006.822-14.473A26.6 26.6 0 00320 384c-17.645 0-32 17.944-32 40s14.355 40 32 40 32-17.944 32-40a8 8 0 00-8-8z" fill="#fff"/></svg>